<svg version="1.1" viewBox="0 0 412 120" xmlns="http://www.w3.org/2000/svg" xmlns:xlink="http://www.w3.org/1999/xlink" id="Layer_1" overflow="hidden"><style>
.MsftOfcThm_Background1_Fill {
 fill:#FFFFFF; 
}
</style>
<path d=" M 59.3 0 C 67 -0.1 74.3 1.2 79.9 3.4 C 82.6 4.4 85.3 5.3 87.6 6.7 C 90.8 8.5 93.7 10.2 96.5 12.3 C 105.2 18.9 111.8 27.6 116.2 38.5 C 117.5 41.7 118.4 45.2 119.2 49 C 119.6 50.7 119.6 52.5 120 54.4 C 120.3 56.2 120.2 58.1 120.2 60.1 C 120.2 61.4 120.3 62.7 120.1 63.9 C 120.1 64.4 120 65 120 65.5 C 119.8 67 119.6 68.4 119.4 69.9 C 118.5 74.4 117.5 78.6 115.9 82.4 C 108.6 99.6 95.7 111.9 77.1 117.7 C 74.7 118.4 72.2 118.9 69.6 119.4 C 68.5 119.5 67.3 119.7 66.2 119.8 C 65.1 119.9 63.9 120 62.8 120 C 62.2 120 61.7 120 61.1 120 C 60.5 120 59.8 120 59.2 120 C 58.7 120 58.1 120 57.6 120 C 56.2 119.8 54.6 119.9 53.3 119.6 C 51.4 119.3 49.6 119.2 47.8 118.7 C 46 118.3 44.3 117.9 42.6 117.4 C 40.2 116.6 37.9 115.7 35.7 114.8 C 22.4 109 11.2 97.9 5.3 84.6 C 4.2 82.1 3.3 79.5 2.4 76.8 C 1.5 74 1.1 71 0.5 67.9 C 0.2 66.4 0.3 64.7 0.1 63.1 C 0.1 62.3 0.1 61.6 -2.77556e-17 60.8 C -2.77556e-17 60.3 -2.77556e-17 59.7 -2.77556e-17 59.2 C -2.77556e-17 58.3 0.1 57.4 0.1 56.5 C 0.4 54.8 0.3 53.1 0.6 51.4 C 1.4 47.5 1.9 43.9 3.2 40.6 C 4.2 37.9 5.1 35.2 6.5 32.8 C 7.1 31.8 7.6 30.7 8.2 29.7 C 9.5 27.6 10.9 25.5 12.3 23.6 C 16.3 18.2 21.7 13.3 27.4 9.6 C 29 8.6 30.6 7.7 32.3 6.8 C 34.7 5.4 37.4 4.5 40.1 3.4 C 43 2.3 46 1.7 49.1 1 C 50.3 0.8 51.4 0.6 52.6 0.5 C 54 0.3 55.5 0.2 57 0.1 C 57.7 0 58.5 0 59.3 0 Z M 58.5 14.2 C 58.1 14.2 57.8 14.2 57.4 14.2 C 56.3 14.3 55.1 14.4 54 14.5 C 51.1 15 48.3 15.5 45.9 16.4 C 37.6 19.6 31.8 24.4 27 31.2 C 25.9 32.7 25.1 34.4 24.1 36 C 22.9 38.1 22 40.4 21.2 42.9 C 20.9 43.9 20.4 45.1 20.4 46.4 C 17.7 47.8 15 49.2 12.3 50.6 C 12.2 52.3 12 54 11.9 55.8 C 11.9 57.1 11.8 58.4 11.8 59.7 C 11.8 61 11.8 62.4 11.8 63.7 C 11.8 65 11.9 66.3 11.9 67.6 C 12 69.3 12.2 71 12.3 72.7 C 15 74.3 17.6 75.8 20.3 77.4 C 23 77.4 25.7 77.4 28.3 77.4 C 27.4 75.3 26.9 72.9 26.4 70.4 C 26.3 69.4 26.1 68.5 26 67.5 C 25.9 66.1 25.8 64.7 25.8 63.3 C 25.8 62.9 25.8 62.4 25.8 62 C 25.8 60.9 25.8 59.8 25.8 58.7 C 25.8 56.5 25.8 54.3 26.1 52.3 C 26.2 51.7 26.2 51 26.3 50.4 C 26.7 48.3 27 46.3 27.6 44.4 C 30 36.9 33.8 31 39.4 26.7 C 41.1 25.4 42.9 24.1 45 23.2 C 47.2 22.2 49.6 21.3 52.2 20.6 C 53.5 20.3 54.7 20.2 56.1 19.9 C 57.1 19.7 58.1 19.9 59.2 19.7 C 59.7 19.7 60.3 19.7 60.8 19.7 C 62 19.9 63.2 19.8 64.4 20 C 67.1 20.5 69.5 20.9 71.8 21.8 C 80.3 25.1 85.3 29.8 89.6 37.2 C 90.6 38.8 91.2 40.7 91.9 42.6 C 93 45.4 93.3 48.4 93.9 51.7 C 94.3 53.7 94.3 56 94.3 58.2 C 94.3 59.2 94.3 60.3 94.3 61.3 C 94.3 61.8 94.3 62.3 94.3 62.7 C 94.3 63.9 94.2 65 94.2 66.2 C 94.1 67.4 93.9 68.5 93.8 69.7 C 93.3 72.4 92.7 75 91.8 77.3 C 94.5 77.3 97.2 77.3 99.8 77.3 C 102.5 75.7 105.1 74.2 107.8 72.6 C 107.9 70.9 108.1 69.1 108.2 67.4 C 108.2 66 108.3 64.6 108.3 63.3 C 108.3 62.2 108.3 61.2 108.3 60.1 C 108.3 59.7 108.3 59.3 108.3 58.9 C 108.3 58.1 108.2 57.2 108.2 56.4 C 108 54.9 108.1 53.4 107.9 51.9 C 107.8 51.5 107.9 50.9 107.8 50.6 C 105.7 49.5 103.7 48.5 101.6 47.4 C 101.3 47.2 99.8 46.7 99.7 46.4 C 99.4 45.3 99.3 44.3 99 43.3 C 96.1 34 90.4 26.3 83.2 21.2 C 81.4 19.9 79.5 18.7 77.4 17.8 C 74.7 16.6 71.8 15.7 68.5 14.9 C 65.5 14.3 62.2 14.2 58.5 14.2 Z M 137.8 21.3 C 144.4 21.3 151 21.3 157.7 21.3 C 157.7 47 157.7 72.8 157.7 98.5 C 151.1 98.5 144.5 98.5 137.8 98.5 C 137.8 72.7 137.8 47 137.8 21.3 Z M 339.7 21.3 C 339.7 24.6 339.7 27.8 339.7 31.1 C 337.9 31.1 335.9 31 334.3 31.3 C 333.4 31.4 332.7 31.4 332.2 32 C 331.4 33 331.6 35 331.6 36.7 C 334.3 36.7 337 36.7 339.7 36.7 C 339.7 40 339.7 43.4 339.7 46.7 C 338.2 46.7 336.6 46.7 335.1 46.7 C 335.1 63.9 335.1 81.2 335.1 98.4 C 328.7 98.4 322.3 98.4 315.8 98.4 C 315.8 81.2 315.8 63.9 315.8 46.7 C 314.5 46.7 313.2 46.7 311.9 46.7 C 311.9 43.4 311.9 40 311.9 36.7 C 313.2 36.7 314.5 36.7 315.8 36.7 C 315.8 33.3 315.7 28.6 316.9 26.4 C 320.6 20.4 330.3 21.3 339.7 21.3 Z M 59.5 25.4 C 59.3 25.4 59 25.4 58.7 25.4 C 57.9 25.5 57 25.5 56.2 25.6 C 54 26 51.9 26.4 50 27.1 C 40.9 30.6 34.5 37.1 31.5 46.6 C 31.1 48 30.8 49.4 30.6 50.9 C 30.5 51.6 30.5 52.3 30.4 53 C 30.4 54.5 30.4 56 30.4 57.6 C 30.4 60.2 30.3 63 30.7 65.2 C 30.8 66.2 31 67.1 31.1 68.1 C 31.7 70.9 32.3 73.5 33.3 76 C 35.6 82 38.7 87.1 41.9 92.2 C 43.1 94.1 44.4 95.8 45.6 97.6 C 47 99.6 48.3 101.4 50.8 102.4 C 52.1 102.9 54.7 102.7 56.4 102.7 C 60.4 102.7 64.4 102.7 68.4 102.7 C 71.5 102.1 72.6 100.2 74.1 98.1 C 76.4 94.8 78.7 91.5 80.9 88 C 83.2 84.2 85.5 80.1 87.2 75.8 C 88.1 73.4 88.7 70.8 89.3 68.2 C 90 65.2 90 61.8 90 58.1 C 90 54.1 89.9 50.5 89 47.5 C 86.6 39.4 82 33.6 75.5 29.6 C 71.2 27.1 66.2 25.4 59.5 25.4 Z M 265.6 26.7 C 272 26.7 278.5 26.7 284.9 26.7 C 284.9 30 284.9 33.3 284.9 36.7 C 286.6 36.7 288.4 36.7 290.1 36.7 C 290.1 40 290.1 43.4 290.1 46.7 C 288.4 46.7 286.6 46.7 284.9 46.7 C 284.9 56.7 284.9 66.7 284.9 76.6 C 284.9 78.3 284.9 80.1 284.9 81.8 C 285 82.7 284.9 83.7 285 84.6 C 285.2 85.6 285 86.8 285.5 87.4 C 286.1 88.1 289.4 88.1 290.9 88.1 C 290.9 91.5 290.9 94.9 290.9 98.3 C 288.1 98.3 285.4 98.3 282.6 98.3 C 281.6 98.3 280.5 98.3 279.5 98.3 C 278.8 98.3 278 98.3 277.3 98.2 C 275.6 97.9 274 97.9 272.5 97.5 C 270.7 96.9 269 95.8 267.9 94.4 C 267.2 93.6 266.6 92.6 266.3 91.5 C 266 90.5 266 89.3 265.8 88.1 C 265.8 87.7 265.8 87.3 265.8 86.9 C 265.8 86 265.7 85.1 265.7 84.2 C 265.7 82.5 265.7 80.7 265.6 79 C 265.6 68.2 265.6 57.5 265.6 46.7 C 264.2 46.7 262.9 46.7 261.5 46.7 C 261.5 43.4 261.5 40 261.5 36.7 C 262.9 36.7 264.2 36.7 265.6 36.7 C 265.6 33.4 265.6 30.1 265.6 26.7 Z M 59.4 32.1 C 61.9 32.1 64.3 32.3 66.2 32.9 C 75 35.5 81.3 41.4 83.7 50.4 C 84.3 52.8 84.3 55.7 84.3 58.8 C 84.3 61.3 84.3 63.6 83.9 65.7 C 82.4 72.8 79.8 78.4 76.6 83.8 C 74.6 87.2 72.5 90.5 70.3 93.7 C 69.7 94.6 68.8 96.1 67.9 96.7 C 67.4 97 66.8 97.1 66.1 97.2 C 63.1 97.2 60.1 97.2 57.1 97.2 C 55.6 97.2 53.7 97.4 52.6 97 C 51.4 96.6 50.9 95.5 50.2 94.6 C 48.7 92.6 47.1 90.6 45.8 88.4 C 41.5 81.6 37.9 74.1 36.1 64.8 C 35.8 63 35.8 61 35.8 58.9 C 35.8 55.4 35.9 52.2 36.7 49.5 C 39.1 41.7 44.3 36.5 51.7 33.6 C 53.3 33 55 32.7 56.9 32.3 C 57.8 32.2 58.6 32.2 59.4 32.1 Z M 207 98.4 C 200.8 98.4 194.5 98.4 188.3 98.4 C 188.3 96.6 188.3 94.7 188.3 92.9 C 188.3 92.9 188.3 92.9 188.3 92.9 C 187.9 93.5 187.6 94.1 187.2 94.7 C 186.1 96.2 184.7 97.3 183.1 98.3 C 180.5 99.8 175.5 99.9 172.3 98.9 C 170.3 98.3 167.8 97.2 166.6 95.7 C 163.9 92.4 163.6 87.9 163.6 82 C 163.6 80.5 163.6 79.1 163.6 77.6 C 163.6 77.1 163.6 76.5 163.7 76 C 164.1 73.6 164.4 71.5 165.5 69.8 C 166.5 68.4 168.2 67.5 169.8 66.6 C 173 64.7 177 63.4 180.5 61.9 C 182.1 61.2 183.7 60.6 185.1 59.8 C 185.7 59.4 186.6 59.1 187 58.5 C 187.6 57.7 187.5 56.4 187.7 55.3 C 187.7 54.9 187.7 54.5 187.7 54.2 C 187.8 53.3 187.8 51.6 187.7 50.7 C 187.7 50.1 187.6 49.4 187.6 48.8 C 187.2 46.8 186.6 44.7 183.9 45.3 C 181.8 45.7 182.2 47.2 181.9 49.3 C 181.9 50.1 181.9 51 181.8 51.8 C 181.8 54.4 181.8 57 181.8 59.6 C 175.8 59.6 169.7 59.6 163.7 59.6 C 163.7 53.8 163.6 48.1 165.3 44.1 C 166.8 40.6 170.3 37.6 173.8 36.1 C 182.5 32.3 197.8 33.5 202.9 39.7 C 204.2 41.3 205.3 42.9 206 45.2 C 206.5 47 206.4 49.2 206.8 51.3 C 206.8 52 206.9 52.7 206.9 53.4 C 206.9 54.4 207 55.4 207 56.4 C 207 57.8 207 59.2 207.1 60.7 C 207.1 62.1 207.1 63.5 207.1 64.9 C 207.1 67.6 207.1 70.4 207.1 73.1 C 207 81.5 207 90 207 98.4 Z M 412 98.4 C 405.8 98.4 399.5 98.4 393.3 98.4 C 393.3 84.9 393.3 71.5 393.3 58 C 393.3 56.8 393.3 55.6 393.3 54.4 C 393.3 53.7 393.3 53 393.3 52.2 C 393.3 51.5 393.2 50.8 393.2 50.1 C 392.8 47.5 393.2 45.6 390.6 45.2 C 389.5 45 388.6 45.6 388.2 46.1 C 387.5 47 387.6 48.3 387.4 49.7 C 387.4 50.4 387.3 51.2 387.3 51.9 C 387.3 52.5 387.3 53 387.3 53.6 C 387.3 54.8 387.3 56.1 387.3 57.3 C 387.3 71 387.3 84.7 387.3 98.4 C 381.1 98.4 374.8 98.4 368.6 98.4 C 368.6 84.9 368.6 71.5 368.6 58 C 368.6 56.2 368.6 54.5 368.5 52.7 C 368.5 51.6 368.4 50.6 368.4 49.6 C 368.2 48.2 368.3 46.9 367.6 46.1 C 367.2 45.6 366.6 45.4 365.9 45.3 C 364.7 45.1 363.8 45.8 363.4 46.4 C 363.1 46.8 362.8 47.2 362.6 47.8 C 362.3 48.8 362.5 50.2 362.4 51.4 C 362.4 53.4 362.4 55.4 362.4 57.4 C 362.4 71.1 362.4 84.8 362.4 98.4 C 356.2 98.4 349.9 98.4 343.7 98.4 C 343.7 77.3 343.7 56.2 343.7 35.1 C 350 35.1 356.4 35.1 362.7 35.1 C 362.6 37.1 362.5 39.1 362.4 41 C 362.4 41 362.4 41 362.4 41 C 362.8 40 363.8 39.2 364.4 38.4 C 366.8 35.5 372.4 32.9 378 34.3 C 381.1 35.1 383.4 36.6 385.1 38.7 C 385.7 39.4 386.5 40.2 386.8 41 C 386.8 41 386.8 41 386.8 41 C 387.2 40 388.3 39.1 389 38.3 C 391.6 35.1 397.6 32.6 403.5 34.4 C 406.5 35.3 408.9 37.1 410.4 39.6 C 412.8 43.6 412.3 52.1 412.3 58.5 C 412 71.9 412 85.2 412 98.4 Z M 213.3 35.2 C 219.7 35.2 226.1 35.2 232.6 35.2 C 232.6 48.7 232.6 62.1 232.6 75.6 C 232.6 77.6 232.6 79.6 232.6 81.6 C 232.6 82.4 232.6 83.1 232.7 83.9 C 232.9 85.2 232.7 86.7 233.3 87.6 C 233.7 88.2 234.4 88.3 235.3 88.4 C 236.3 88.6 237.3 88.1 237.7 87.6 C 238.3 86.8 238.1 85.4 238.3 84.2 C 238.3 83.4 238.3 82.7 238.4 81.9 C 238.4 80 238.4 78.1 238.4 76.2 C 238.4 62.5 238.4 48.9 238.4 35.2 C 244.8 35.2 251.2 35.2 257.7 35.2 C 257.7 56.3 257.7 77.4 257.7 98.5 C 251.2 98.5 244.6 98.5 238.1 98.5 C 238.2 96.8 238.3 95 238.4 93.3 C 238.4 93.3 238.4 93.3 238.4 93.3 C 238.1 94.1 237.3 94.8 236.8 95.5 C 235.1 97.6 232.5 98.8 229.3 99.4 C 228.3 99.6 226.9 99.7 225.8 99.5 C 225.5 99.5 225.1 99.5 224.8 99.5 C 223.9 99.3 223 99.3 222.2 99 C 219.3 98.1 217.1 96.6 215.7 94.3 C 214.9 93 214.4 91.4 214 89.6 C 213.7 88.4 213.9 87 213.6 85.6 C 213.6 85.1 213.6 84.7 213.6 84.2 C 213.6 83.4 213.6 82.6 213.6 81.9 C 213.6 79.5 213.6 77.1 213.6 74.6 C 213.3 61.5 213.3 48.3 213.3 35.2 Z M 187.8 68.4 C 187.4 68.7 186.9 69.1 186.5 69.4 C 185.2 70.4 183.4 72 182.7 73.6 C 182.1 75 182.1 76.6 181.9 78.4 C 181.8 79.3 181.7 80.6 181.9 81.5 C 181.9 82 181.9 82.6 181.9 83.1 C 182.3 85.5 182 87.7 184.2 88.2 C 185.4 88.5 186.7 88.1 187.2 87.4 C 187.9 86.4 187.7 84.8 187.9 83.4 C 187.9 82.3 187.9 81.2 187.9 80.1 C 187.9 78 187.9 75.8 187.9 73.7 C 187.8 72 187.8 70.2 187.8 68.4 Z M 295.5 82.7 C 300.3 82.7 305.2 82.7 310 82.7 C 310 88 310 93.2 310 98.5 C 305.2 98.5 300.3 98.5 295.5 98.5 C 295.5 93.2 295.5 87.9 295.5 82.7 Z" stroke="none" stroke-width="1" stroke-dasharray="" stroke-dashoffset="1" fill="#FFFFFF" fill-opacity="1"/></svg>